<svg xmlns="http://www.w3.org/2000/svg" viewBox="0 0 100 100"><path fill-rule="evenodd" clip-rule="evenodd" d="M46.792 70.256c-.088.555 1.847-10.14 2.447-13.867 1.03-3.449 1.696-7.597 3.112-11.527.092-.258.186-.517.242-.783.361-1.703 1.039-3.257 2.01-4.712.445-.667.686-1.479.967-2.243.074-.195-.053-.463-.098-.756-.17.123-.254.153-.289.213-2.123 3.559-4.256 7.111-6.34 10.693a3.349 3.349 0 0 0-.416 1.676c.029 1.281-.392 2.403-.959 3.517a5.34 5.34 0 0 1-.071-1.165c.083-2.502.176-5.004.251-7.507.046-1.487.026-2.977.107-4.46.091-1.678.263-3.352.397-5.028.136-1.676.25-3.354.406-5.028.336-3.61 1.592-6.911 3.415-10.018.127-.217.314-.398.469-.593.408.305.721.636 1.104.803.371.162.922.348 1.205.189 1.066-.597 2.246-.641 3.383-.896 1.301-.293 2.174-1.046 2.455-2.379.096-.451.234-.949.127-1.368-.088-.342-.51-.599-.783-.892.143-.32.311-.632.426-.961.588-1.708-.217-3.004-1.984-3.345-.787-.15-1.543-.464-2.229-.679 0-.547.043-.942-.01-1.325-.107-.823-.617-1.338-1.395-1.564-.863-.251-1.705-.124-2.211.639-.619.939-1.098 1.973-1.619 2.976-.189.36-.324.749-.555 1.291-.39-.716-.675-1.268-.988-1.804-.309-.528-.342-1.25-1.134-1.681-.091.696-.126 1.232-.234 1.754-.246 1.189-.014 2.263.742 3.202.598.741.838 1.562.804 2.504-.038 1.019.445 1.797 1.242 2.399l.734.553c-.416.813-.798 1.621-1.23 2.398-1.021 1.826-1.792 3.754-2.148 5.803-.396 2.269-.662 4.562-.913 6.853a104.92 104.92 0 0 0-.469 5.848c-.119 2.226-.156 4.457-.221 6.686-.089 3.13-.153 6.259-.261 9.388-.034 1.013-.177 2.019-.26 3.028-.025.312-.046 3.361-.372 4.503-.468-.232-1.128-1.72-.848-2.135.532-.795.46-1.646.144-2.476-.305-.8-1.272-6.574-1.992-7.469-.295-.364-1.012-4.983-1.562-6.02-.618-1.17-2.167-2.917-2.147-2.605.062.971.094 1.961.303 2.906.717 3.244 1.308 6.508 1.856 9.785.496 2.962.749 5.978 1.697 8.858.16.483.916 2.58 1.733 3.721.817 1.143 1.96 3.1 1.96 3.1z"/><path fill-rule="evenodd" clip-rule="evenodd" d="M45.812 67.32s-.384 21.609 1.023 26.107c.174.557.62.442.853.404.206-.034.833-.098.489-.613-.979-1.468-1.276-8.188-1.468-13.337-.286-7.668.407-12.727.407-12.727l-1.304.166z"/></svg>